<?xml version="1.0" encoding="UTF-8" standalone="no"?>
<!-- Created with Inkscape (http://www.inkscape.org/) -->

<svg
   xmlns:dc="http://purl.org/dc/elements/1.1/"
   xmlns:cc="http://creativecommons.org/ns#"
   xmlns:rdf="http://www.w3.org/1999/02/22-rdf-syntax-ns#"
   xmlns:svg="http://www.w3.org/2000/svg"
   xmlns="http://www.w3.org/2000/svg"
   xmlns:sodipodi="http://sodipodi.sourceforge.net/DTD/sodipodi-0.dtd"
   xmlns:inkscape="http://www.inkscape.org/namespaces/inkscape"
   width="146.30275mm"
   height="34.309971mm"
   viewBox="0 0 146.30275 34.309971"
   version="1.1"
   id="svg375"
   inkscape:version="0.92.1 r"
   sodipodi:docname="logo.svg">
  <defs
     id="defs369" />
  <sodipodi:namedview
     id="base"
     pagecolor="#ffffff"
     bordercolor="#666666"
     borderopacity="1.0"
     inkscape:pageopacity="0.0"
     inkscape:pageshadow="2"
     inkscape:zoom="1.4"
     inkscape:cx="229.69908"
     inkscape:cy="11.52993"
     inkscape:document-units="mm"
     inkscape:current-layer="layer1"
     showgrid="false"
     fit-margin-top="0"
     fit-margin-left="0"
     fit-margin-right="0"
     fit-margin-bottom="0"
     inkscape:window-width="1920"
     inkscape:window-height="1020"
     inkscape:window-x="0"
     inkscape:window-y="0"
     inkscape:window-maximized="1" />
  <metadata
     id="metadata372">
    <rdf:RDF>
      <cc:Work
         rdf:about="">
        <dc:format>image/svg+xml</dc:format>
        <dc:type
           rdf:resource="http://purl.org/dc/dcmitype/StillImage" />
        <dc:title></dc:title>
      </cc:Work>
    </rdf:RDF>
  </metadata>
  <g
     inkscape:label="Capa 1"
     inkscape:groupmode="layer"
     id="layer1"
     transform="translate(-28.902202,-121.85096)">
    <path
       style="opacity:1;fill:#ffffff;fill-opacity:1;stroke:none;stroke-width:2.11666656;stroke-linecap:round;stroke-linejoin:miter;stroke-miterlimit:4;stroke-dasharray:none;stroke-opacity:1"
       d="m 43.013315,121.85096 c -7.793354,0 -14.111113,6.31777 -14.111113,14.11112 0,7.79335 6.317759,14.11111 14.111113,14.11111 h 38.983602 a 14.841712,14.841712 0 0 1 -9.879435,-13.96834 14.841712,14.841712 0 0 1 10.730513,-14.25389 z"
       id="rect4429-0-1-3-1-2"
       inkscape:connector-curvature="0" />
    <path
       style="opacity:1;fill:#5b9bd5;fill-opacity:1;stroke:none;stroke-width:2.11666656;stroke-linecap:round;stroke-linejoin:miter;stroke-miterlimit:4;stroke-dasharray:none;stroke-opacity:1"
       d="m 97.250969,121.99428 a 14.841712,14.841712 0 0 1 10.749251,14.25388 14.841712,14.841712 0 0 1 -9.870061,13.96835 h 62.963681 a 14.111112,14.111112 0 0 0 14.11111,-14.11111 14.111112,14.111112 0 0 0 -14.11111,-14.11112 z"
       id="rect4429-3-1-2"
       inkscape:connector-curvature="0" />
    <path
       style="opacity:1;fill:#ffffff;fill-opacity:1;stroke:#c1c1c1;stroke-width:0.28222224;stroke-linecap:round;stroke-miterlimit:4;stroke-dasharray:none;stroke-opacity:1"
       d="m 97.380213,145.98331 -9.978062,9.97806 -9.978067,-9.97806"
       id="path4170-9-6-1-2-2-7-8"
       inkscape:connector-curvature="0" />
    <path
       inkscape:connector-curvature="0"
       style="opacity:1;fill:#c1c1c1;fill-opacity:1;stroke:#c1c1c1;stroke-width:0.28222224;stroke-linecap:round;stroke-miterlimit:4;stroke-dasharray:none;stroke-opacity:1"
       d="m 97.280478,126.12713 a 14.111112,14.111112 0 0 0 -19.956123,0 14.111112,14.111112 0 0 0 -3e-6,19.95613 14.111112,14.111112 0 0 0 19.956129,0 14.111112,14.111112 0 0 0 -3e-6,-19.95613 z m -4.989031,4.98903 a 7.0555559,7.0555559 0 0 1 0,9.97806 7.0555559,7.0555559 0 0 1 -9.978064,0 7.0555559,7.0555559 0 0 1 5e-6,-9.97806 7.0555559,7.0555559 0 0 1 9.978059,0 z"
       id="path4140-4-9-8-2-8-1-0-4" />
    <path
       style="opacity:0.98000004;fill:#ffffff;fill-opacity:1;stroke:#ff9d26;stroke-width:0.28222224;stroke-linecap:round;stroke-miterlimit:4;stroke-dasharray:none;stroke-opacity:1"
       d="m 100.20244,145.98331 -9.978068,9.97806 -9.978065,-9.97806"
       id="path4170-9-6-1-2-4-3-0"
       inkscape:connector-curvature="0" />
    <path
       inkscape:connector-curvature="0"
       style="opacity:1;fill:#ff9d26;fill-opacity:1;stroke:#ff9d26;stroke-width:0.28222224;stroke-linecap:round;stroke-miterlimit:4;stroke-dasharray:none;stroke-opacity:1"
       d="m 100.1027,126.12713 a 14.111112,14.111112 0 0 0 -19.956122,0 14.111112,14.111112 0 0 0 -3e-6,19.95613 14.111112,14.111112 0 0 0 19.956125,0 14.111112,14.111112 0 0 0 0,-19.95613 z m -4.989029,4.98903 a 7.0555559,7.0555559 0 0 1 0,9.97806 7.0555559,7.0555559 0 0 1 -9.978065,0 7.0555559,7.0555559 0 0 1 3e-6,-9.97806 7.0555559,7.0555559 0 0 1 9.978062,0 z"
       id="path4140-4-9-8-2-8-2-9-0" />
    <path
       style="fill:#ffffff;fill-opacity:1;stroke:#5b9bd5;stroke-width:0.28222224;stroke-linecap:round;stroke-miterlimit:4;stroke-dasharray:none;stroke-opacity:1"
       d="m 103.02466,145.98331 -9.978065,9.97806 -9.978065,-9.97806"
       id="path4170-9-6-1-2-6-0"
       inkscape:connector-curvature="0" />
    <path
       inkscape:connector-curvature="0"
       style="fill:#5b9bd5;fill-opacity:1;stroke:#5b9bd5;stroke-width:0.28222224;stroke-linecap:round;stroke-miterlimit:4;stroke-dasharray:none;stroke-opacity:1"
       d="m 102.92492,126.12713 a 14.111112,14.111112 0 0 0 -19.956119,1e-5 14.111112,14.111112 0 0 0 -3e-6,19.95612 14.111112,14.111112 0 0 0 19.956132,0 14.111112,14.111112 0 0 0 -1e-5,-19.95613 z m -4.989029,4.98903 a 7.0555559,7.0555559 0 0 1 0,9.97807 7.0555559,7.0555559 0 0 1 -9.978062,0 7.0555559,7.0555559 0 0 1 3e-6,-9.97806 7.0555559,7.0555559 0 0 1 9.978059,-1e-5 z"
       id="path4140-4-9-8-2-8-3-7" />
    <text
       xml:space="preserve"
       style="font-style:normal;font-weight:normal;font-size:3.38666677px;line-height:0%;font-family:sans-serif;letter-spacing:0px;word-spacing:0px;fill:#ffffff;fill-opacity:1;stroke:none;stroke-width:0.28222224px;stroke-linecap:butt;stroke-linejoin:miter;stroke-opacity:1"
       x="110.44238"
       y="144.8591"
       id="text4425-7"><tspan
         sodipodi:role="line"
         id="tspan4427-2"
         x="110.44238"
         y="144.8591"
         style="font-style:normal;font-variant:normal;font-weight:normal;font-stretch:normal;font-size:25.10347557px;line-height:1.25;font-family:Arial;-inkscape-font-specification:Arial;fill:#ffffff;stroke-width:0.28222224px">CGR</tspan></text>
    <text
       xml:space="preserve"
       style="font-style:normal;font-weight:normal;font-size:3.38666677px;line-height:0%;font-family:sans-serif;letter-spacing:0px;word-spacing:0px;fill:#7d7d7d;fill-opacity:1;stroke:none;stroke-width:0.28222224px;stroke-linecap:butt;stroke-linejoin:miter;stroke-opacity:1"
       x="36.125244"
       y="144.8591"
       id="text4425-1-6"><tspan
         sodipodi:role="line"
         id="tspan4427-3-5"
         x="36.125244"
         y="144.8591"
         style="font-style:normal;font-variant:normal;font-weight:normal;font-stretch:normal;font-size:25.10347557px;line-height:1.25;font-family:Arial;-inkscape-font-specification:Arial;fill:#7d7d7d;fill-opacity:1;stroke-width:0.28222224px">GE</tspan></text>
  </g>
</svg>
